<svg xmlns="http://www.w3.org/2000/svg" height="116" width="116" viewBox="0 0 49 49"><path fill="#FFFFFF" d="M0,0 h49v49H0z" shape-rendering="crispEdges"></path><path fill="#000000" d="M0 0h7v1H0zM10 0h1v1H10zM13 0h1v1H13zM17 0h1v1H17zM19 0h1v1H19zM24 0h6v1H24zM32 0h1v1H32zM34 0h1v1H34zM37 0h1v1H37zM40 0h1v1H40zM42,0 h7v1H42zM0 1h1v1H0zM6 1h1v1H6zM10 1h5v1H10zM16 1h4v1H16zM21 1h3v1H21zM28 1h1v1H28zM30 1h4v1H30zM35 1h1v1H35zM37 1h4v1H37zM42 1h1v1H42zM48,1 h1v1H48zM0 2h1v1H0zM2 2h3v1H2zM6 2h1v1H6zM8 2h1v1H8zM11 2h1v1H11zM14 2h2v1H14zM19 2h1v1H19zM24 2h2v1H24zM29 2h1v1H29zM32 2h2v1H32zM35 2h1v1H35zM39 2h2v1H39zM42 2h1v1H42zM44 2h3v1H44zM48,2 h1v1H48zM0 3h1v1H0zM2 3h3v1H2zM6 3h1v1H6zM8 3h1v1H8zM10 3h1v1H10zM17 3h2v1H17zM21 3h1v1H21zM23 3h1v1H23zM29 3h1v1H29zM31 3h1v1H31zM35 3h3v1H35zM39 3h1v1H39zM42 3h1v1H42zM44 3h3v1H44zM48,3 h1v1H48zM0 4h1v1H0zM2 4h3v1H2zM6 4h1v1H6zM8 4h1v1H8zM10 4h2v1H10zM13 4h2v1H13zM16 4h2v1H16zM19 4h8v1H19zM29 4h4v1H29zM37 4h1v1H37zM42 4h1v1H42zM44 4h3v1H44zM48,4 h1v1H48zM0 5h1v1H0zM6 5h1v1H6zM8 5h4v1H8zM13 5h2v1H13zM16 5h1v1H16zM20 5h1v1H20zM22 5h1v1H22zM26 5h1v1H26zM31 5h8v1H31zM42 5h1v1H42zM48,5 h1v1H48zM0 6h7v1H0zM8 6h1v1H8zM10 6h1v1H10zM12 6h1v1H12zM14 6h1v1H14zM16 6h1v1H16zM18 6h1v1H18zM20 6h1v1H20zM22 6h1v1H22zM24 6h1v1H24zM26 6h1v1H26zM28 6h1v1H28zM30 6h1v1H30zM32 6h1v1H32zM34 6h1v1H34zM36 6h1v1H36zM38 6h1v1H38zM40 6h1v1H40zM42,6 h7v1H42zM8 7h3v1H8zM12 7h1v1H12zM14 7h2v1H14zM18 7h3v1H18zM22 7h1v1H22zM26 7h4v1H26zM31 7h1v1H31zM33 7h1v1H33zM37 7h2v1H37zM0 8h1v1H0zM2 8h5v1H2zM9 8h1v1H9zM11 8h1v1H11zM13 8h2v1H13zM17 8h1v1H17zM20 8h7v1H20zM29 8h1v1H29zM31 8h1v1H31zM34 8h4v1H34zM39 8h2v1H39zM42 8h5v1H42zM4 9h1v1H4zM8 9h1v1H8zM10 9h1v1H10zM15 9h2v1H15zM19 9h1v1H19zM22 9h1v1H22zM25 9h1v1H25zM27 9h1v1H27zM29 9h4v1H29zM37 9h1v1H37zM41 9h5v1H41zM1 10h1v1H1zM3 10h8v1H3zM13 10h1v1H13zM15 10h9v1H15zM26 10h2v1H26zM31 10h1v1H31zM33 10h2v1H33zM36 10h2v1H36zM41 10h3v1H41zM46,10 h3v1H46zM1 11h1v1H1zM3 11h3v1H3zM8 11h1v1H8zM11 11h3v1H11zM15 11h1v1H15zM18 11h3v1H18zM27 11h3v1H27zM32 11h2v1H32zM37 11h2v1H37zM40 11h1v1H40zM44 11h1v1H44zM48,11 h1v1H48zM1 12h1v1H1zM3 12h2v1H3zM6 12h2v1H6zM10 12h1v1H10zM13 12h1v1H13zM16 12h4v1H16zM21 12h5v1H21zM29 12h3v1H29zM33 12h1v1H33zM35 12h4v1H35zM43 12h1v1H43zM45,12 h4v1H45zM0 13h1v1H0zM2 13h3v1H2zM9 13h4v1H9zM15 13h1v1H15zM17 13h2v1H17zM21 13h1v1H21zM23 13h1v1H23zM25 13h1v1H25zM28 13h5v1H28zM42 13h1v1H42zM45 13h1v1H45zM47 13h1v1H47zM2 14h1v1H2zM6 14h2v1H6zM9 14h1v1H9zM13 14h4v1H13zM19 14h1v1H19zM23 14h2v1H23zM26 14h1v1H26zM28 14h1v1H28zM33 14h3v1H33zM37 14h4v1H37zM43 14h1v1H43zM46,14 h3v1H46zM0 15h4v1H0zM7 15h2v1H7zM10 15h4v1H10zM16 15h2v1H16zM21 15h1v1H21zM23 15h4v1H23zM30 15h2v1H30zM33 15h1v1H33zM36 15h2v1H36zM40 15h6v1H40zM48,15 h1v1H48zM0 16h4v1H0zM5 16h2v1H5zM9 16h1v1H9zM13 16h1v1H13zM15 16h2v1H15zM19 16h1v1H19zM23 16h5v1H23zM29 16h2v1H29zM36 16h2v1H36zM39 16h2v1H39zM42 16h2v1H42zM46 16h1v1H46zM8 17h1v1H8zM10 17h2v1H10zM18 17h2v1H18zM22 17h2v1H22zM25 17h1v1H25zM30 17h2v1H30zM33 17h1v1H33zM35 17h3v1H35zM42 17h3v1H42zM2 18h1v1H2zM4 18h1v1H4zM6 18h2v1H6zM13 18h2v1H13zM16 18h3v1H16zM22 18h2v1H22zM26 18h2v1H26zM29 18h2v1H29zM35 18h5v1H35zM41 18h1v1H41zM45 18h1v1H45zM47,18 h2v1H47zM2 19h1v1H2zM4 19h2v1H4zM7 19h2v1H7zM10 19h2v1H10zM15 19h1v1H15zM17 19h1v1H17zM19 19h1v1H19zM27 19h3v1H27zM32 19h1v1H32zM34 19h1v1H34zM37 19h1v1H37zM41 19h4v1H41zM0 20h7v1H0zM17 20h1v1H17zM21 20h5v1H21zM29 20h3v1H29zM33 20h2v1H33zM36 20h3v1H36zM40 20h1v1H40zM42 20h1v1H42zM46,20 h3v1H46zM2 21h4v1H2zM10 21h1v1H10zM13 21h1v1H13zM17 21h1v1H17zM19 21h1v1H19zM22 21h1v1H22zM28 21h1v1H28zM30 21h1v1H30zM35 21h1v1H35zM41 21h6v1H41zM1 22h1v1H1zM4 22h5v1H4zM12 22h1v1H12zM15 22h4v1H15zM22 22h5v1H22zM32 22h3v1H32zM36 22h1v1H36zM38 22h1v1H38zM40 22h5v1H40zM47,22 h2v1H47zM0 23h2v1H0zM3 23h2v1H3zM8 23h2v1H8zM11 23h2v1H11zM16 23h1v1H16zM19 23h1v1H19zM22 23h1v1H22zM26 23h1v1H26zM28 23h1v1H28zM31 23h2v1H31zM35 23h1v1H35zM37 23h2v1H37zM40 23h1v1H40zM44 23h1v1H44zM47 23h1v1H47zM1 24h1v1H1zM3 24h2v1H3zM6 24h1v1H6zM8 24h1v1H8zM10 24h2v1H10zM13 24h4v1H13zM18 24h5v1H18zM24 24h1v1H24zM26 24h1v1H26zM30 24h2v1H30zM35 24h4v1H35zM40 24h1v1H40zM42 24h1v1H42zM44 24h1v1H44zM46 24h2v1H46zM0 25h1v1H0zM2 25h1v1H2zM4 25h1v1H4zM8 25h1v1H8zM12 25h4v1H12zM18 25h2v1H18zM22 25h1v1H22zM26 25h1v1H26zM29 25h3v1H29zM33 25h1v1H33zM35 25h3v1H35zM39 25h2v1H39zM44 25h1v1H44zM46 25h1v1H46zM0 26h1v1H0zM4 26h5v1H4zM10 26h1v1H10zM13 26h1v1H13zM16 26h1v1H16zM18 26h2v1H18zM22 26h5v1H22zM31 26h1v1H31zM34 26h11v1H34zM46,26 h3v1H46zM1 27h1v1H1zM5 27h1v1H5zM9 27h1v1H9zM11 27h1v1H11zM14 27h2v1H14zM17 27h4v1H17zM22 27h2v1H22zM25 27h1v1H25zM27 27h4v1H27zM32 27h3v1H32zM40 27h1v1H40zM47,27 h2v1H47zM0 28h1v1H0zM5 28h3v1H5zM10 28h5v1H10zM16 28h3v1H16zM21 28h7v1H21zM29 28h3v1H29zM35 28h2v1H35zM38 28h4v1H38zM43 28h2v1H43zM46,28 h3v1H46zM0 29h1v1H0zM2 29h2v1H2zM5 29h1v1H5zM9 29h2v1H9zM13 29h1v1H13zM19 29h3v1H19zM24 29h7v1H24zM32 29h1v1H32zM35 29h2v1H35zM40 29h2v1H40zM43 29h1v1H43zM46 29h1v1H46zM0 30h1v1H0zM4 30h1v1H4zM6 30h1v1H6zM9 30h3v1H9zM14 30h4v1H14zM20 30h1v1H20zM22 30h4v1H22zM28 30h2v1H28zM31 30h4v1H31zM37 30h2v1H37zM41 30h3v1H41zM47,30 h2v1H47zM2 31h1v1H2zM11 31h1v1H11zM14 31h1v1H14zM16 31h2v1H16zM19 31h2v1H19zM24 31h4v1H24zM29 31h1v1H29zM34 31h1v1H34zM40 31h1v1H40zM43 31h1v1H43zM47,31 h2v1H47zM1 32h1v1H1zM3 32h1v1H3zM6 32h2v1H6zM10 32h2v1H10zM13 32h1v1H13zM17 32h1v1H17zM20 32h1v1H20zM22 32h2v1H22zM25 32h1v1H25zM28 32h1v1H28zM31 32h6v1H31zM39 32h3v1H39zM43 32h4v1H43zM48,32 h1v1H48zM0 33h5v1H0zM11 33h1v1H11zM13 33h2v1H13zM17 33h3v1H17zM23 33h7v1H23zM32 33h1v1H32zM34 33h2v1H34zM37 33h1v1H37zM40 33h2v1H40zM43 33h1v1H43zM3 34h2v1H3zM6 34h2v1H6zM10 34h2v1H10zM15 34h1v1H15zM19 34h1v1H19zM21 34h3v1H21zM25 34h1v1H25zM28 34h1v1H28zM30 34h4v1H30zM35 34h2v1H35zM38 34h3v1H38zM42 34h1v1H42zM44 34h2v1H44zM48,34 h1v1H48zM0 35h1v1H0zM3 35h1v1H3zM7 35h2v1H7zM12 35h1v1H12zM16 35h1v1H16zM18 35h1v1H18zM21 35h1v1H21zM23 35h1v1H23zM26 35h4v1H26zM32 35h2v1H32zM35 35h1v1H35zM37 35h2v1H37zM40 35h1v1H40zM43 35h2v1H43zM47,35 h2v1H47zM0 36h1v1H0zM2 36h1v1H2zM5 36h3v1H5zM10 36h1v1H10zM12 36h5v1H12zM19 36h1v1H19zM21 36h1v1H21zM23 36h3v1H23zM29 36h1v1H29zM31 36h1v1H31zM34 36h1v1H34zM36 36h1v1H36zM38 36h4v1H38zM44 36h1v1H44zM46 36h1v1H46zM48,36 h1v1H48zM1 37h5v1H1zM11 37h1v1H11zM15 37h1v1H15zM18 37h2v1H18zM21 37h4v1H21zM29 37h3v1H29zM37 37h1v1H37zM39 37h3v1H39zM43 37h1v1H43zM45 37h1v1H45zM47,37 h2v1H47zM1 38h1v1H1zM5 38h2v1H5zM11 38h3v1H11zM16 38h5v1H16zM22 38h4v1H22zM27 38h1v1H27zM31 38h4v1H31zM36 38h1v1H36zM38 38h6v1H38zM45,38 h4v1H45zM1 39h3v1H1zM9 39h1v1H9zM11 39h6v1H11zM18 39h1v1H18zM21 39h1v1H21zM23 39h2v1H23zM26 39h4v1H26zM32 39h1v1H32zM34 39h2v1H34zM40 39h2v1H40zM43 39h1v1H43zM47,39 h2v1H47zM0 40h3v1H0zM6 40h1v1H6zM11 40h1v1H11zM13 40h2v1H13zM17 40h2v1H17zM20 40h7v1H20zM29 40h1v1H29zM31 40h1v1H31zM35 40h12v1H35zM48,40 h1v1H48zM8 41h2v1H8zM12 41h1v1H12zM14 41h3v1H14zM18 41h1v1H18zM21 41h2v1H21zM26 41h1v1H26zM29 41h2v1H29zM32 41h1v1H32zM35 41h1v1H35zM37 41h1v1H37zM40 41h1v1H40zM44 41h1v1H44zM0 42h7v1H0zM12 42h1v1H12zM16 42h1v1H16zM21 42h2v1H21zM24 42h1v1H24zM26 42h1v1H26zM28 42h1v1H28zM31 42h5v1H31zM38 42h1v1H38zM40 42h1v1H40zM42 42h1v1H42zM44 42h1v1H44zM47,42 h2v1H47zM0 43h1v1H0zM6 43h1v1H6zM8 43h1v1H8zM10 43h1v1H10zM13 43h1v1H13zM15 43h2v1H15zM19 43h1v1H19zM21 43h2v1H21zM26 43h3v1H26zM30 43h1v1H30zM32 43h1v1H32zM40 43h1v1H40zM44 43h1v1H44zM0 44h1v1H0zM2 44h3v1H2zM6 44h1v1H6zM8 44h4v1H8zM17 44h1v1H17zM19 44h1v1H19zM22 44h5v1H22zM30 44h1v1H30zM33 44h1v1H33zM35 44h2v1H35zM40 44h7v1H40zM48,44 h1v1H48zM0 45h1v1H0zM2 45h3v1H2zM6 45h1v1H6zM8 45h3v1H8zM12 45h2v1H12zM16 45h1v1H16zM18 45h1v1H18zM21 45h1v1H21zM25 45h2v1H25zM29 45h3v1H29zM33 45h1v1H33zM39 45h3v1H39zM43 45h2v1H43zM46 45h1v1H46zM48,45 h1v1H48zM0 46h1v1H0zM2 46h3v1H2zM6 46h1v1H6zM8 46h2v1H8zM12 46h1v1H12zM15 46h5v1H15zM22 46h3v1H22zM26 46h1v1H26zM31 46h1v1H31zM34 46h1v1H34zM36 46h3v1H36zM41 46h1v1H41zM43 46h1v1H43zM45 46h2v1H45zM0 47h1v1H0zM6 47h1v1H6zM9 47h4v1H9zM15 47h2v1H15zM22 47h2v1H22zM25 47h2v1H25zM30 47h2v1H30zM33 47h1v1H33zM39 47h1v1H39zM41 47h2v1H41zM48,47 h1v1H48zM0 48h7v1H0zM8 48h1v1H8zM11 48h1v1H11zM13 48h3v1H13zM17 48h1v1H17zM20 48h1v1H20zM23 48h2v1H23zM27 48h1v1H27zM29 48h2v1H29zM35 48h3v1H35zM39 48h3v1H39zM45,48 h4v1H45z" shape-rendering="crispEdges"></path></svg>